<svg xmlns="http://www.w3.org/2000/svg" xmlns:xlink="http://www.w3.org/1999/xlink" id="Слой_1" x="0px" y="0px" viewBox="0 0 24 24" style="enable-background:new 0 0 24 24;" xml:space="preserve"> <style type="text/css"> .st0{fill:none;stroke:#000000;stroke-width:2;stroke-linecap:round;stroke-linejoin:round;} </style> <path class="st0" d="M2,7c0-0.5,0.2-1,0.6-1.4C3,5.2,3.5,5,4,5h16c0.5,0,1,0.2,1.4,0.6C21.8,6,22,6.5,22,7v10c0,0.5-0.2,1-0.6,1.4 C21,18.8,20.5,19,20,19H4c-0.5,0-1-0.2-1.4-0.6C2.2,18,2,17.5,2,17V7z"></path> <path class="st0" d="M12,15c1.7,0,3-1.3,3-3s-1.3-3-3-3s-3,1.3-3,3S10.3,15,12,15z"></path> <path class="st0" d="M2,9c1.1,0,2.1-0.4,2.8-1.2C5.6,7.1,6,6.1,6,5 M18,19c0-1.1,0.4-2.1,1.2-2.8c0.8-0.8,1.8-1.2,2.8-1.2"></path> </svg>