<svg xmlns="http://www.w3.org/2000/svg" xmlns:xlink="http://www.w3.org/1999/xlink" id="Слой_1" x="0px" y="0px" viewBox="0 0 24 24" style="enable-background:new 0 0 24 24;" xml:space="preserve"> <path d="M21.8,15v-1.5c0-1.4-1.4-2.5-2.8-2.5s-2.8,1.1-2.8,2.5V15c-0.6,0-1.2,0.6-1.2,1.2v3.5c0,0.7,0.6,1.3,1.2,1.3h5.5 c0.7,0,1.3-0.6,1.3-1.2v-3.5C23,15.6,22.4,15,21.8,15z M20.5,15h-3v-1.5c0-0.8,0.7-1.3,1.5-1.3s1.5,0.5,1.5,1.3V15z M13,19.7V18H4 v-6h10.5c0.7-1.7,2.5-3,4.5-3c1.1,0,2.2,0.4,3,1V6c0-0.5-0.2-1-0.6-1.4C21,4.2,20.5,4,20,4H4C2.9,4,2,4.9,2,6v12 c0,0.5,0.2,1,0.6,1.4C3,19.8,3.5,20,4,20h9C13,19.9,13,19.8,13,19.7z M4,6h16v2H4V6z"></path> </svg>